<svg width="316" height="271" viewBox="0 0 316 271" fill="none" xmlns="http://www.w3.org/2000/svg">
<g opacity="0.6">
<g opacity="0.1">
<rect width="37.5442" height="21.8739" rx="10.937" transform="matrix(-0.720068 -0.693903 0.7198 -0.694182 40.9746 131.648)" fill="#5D3BEE"/>
<rect width="99.2325" height="21.8739" rx="10.937" transform="matrix(-0.720068 -0.693903 0.7198 -0.694182 120.553 206.791)" fill="#5D3BEE"/>
<rect width="249.638" height="21.8739" rx="10.937" transform="matrix(-0.720068 -0.693903 0.7198 -0.694182 199.948 232.351)" fill="#5D3BEE"/>
<rect width="93.083" height="21.8739" rx="10.937" transform="matrix(-0.720068 -0.693904 0.719799 -0.694182 141.479 127.952)" fill="#5D3BEE"/>
</g>
<g opacity="0.1">
<rect width="99.2325" height="21.8739" rx="10.937" transform="matrix(-0.720068 -0.693903 0.7198 -0.694182 217.193 196.184)" fill="#5D3BEE"/>
<rect width="249.638" height="21.8739" rx="10.937" transform="matrix(-0.720068 -0.693903 0.7198 -0.694182 296.588 221.745)" fill="#5D3BEE"/>
<rect width="93.083" height="21.8739" rx="10.937" transform="matrix(-0.720068 -0.693903 0.7198 -0.694182 238.119 117.346)" fill="#5D3BEE"/>
</g>
</g>
</svg>
