<svg width="535" height="511" viewBox="0 0 535 511" fill="none" xmlns="http://www.w3.org/2000/svg">
<g opacity="0.1">
<rect width="63.715" height="37.1214" rx="18.5607" transform="matrix(-0.720068 -0.693903 0.7198 -0.694182 69.6201 230.414)" fill="#5D3BEE"/>
<rect width="168.404" height="37.1214" rx="18.5607" transform="matrix(-0.720068 -0.693903 0.7198 -0.694182 204.671 357.937)" fill="#5D3BEE"/>
<rect width="423.652" height="37.1214" rx="18.5607" transform="matrix(-0.720068 -0.693903 0.7198 -0.694182 339.409 401.314)" fill="#5D3BEE"/>
<rect width="157.968" height="37.1214" rx="18.5607" transform="matrix(-0.720068 -0.693903 0.7198 -0.694182 240.183 224.142)" fill="#5D3BEE"/>
<rect width="157.968" height="37.1214" rx="18.5607" transform="matrix(-0.720068 -0.693903 0.7198 -0.694182 442.827 421.383)" fill="#5D3BEE"/>
</g>
<g opacity="0.1">
<rect width="63.715" height="37.1214" rx="18.5607" transform="matrix(-0.720068 -0.693903 0.7198 -0.694182 233.62 212.414)" fill="#5D3BEE"/>
<rect width="168.404" height="37.1214" rx="18.5607" transform="matrix(-0.720068 -0.693903 0.7198 -0.694182 368.675 339.937)" fill="#5D3BEE"/>
<rect width="423.652" height="37.1214" rx="18.5607" transform="matrix(-0.720068 -0.693903 0.7198 -0.694182 503.413 383.314)" fill="#5D3BEE"/>
<rect width="157.968" height="37.1214" rx="18.5607" transform="matrix(-0.720068 -0.693903 0.7198 -0.694182 404.186 206.143)" fill="#5D3BEE"/>
</g>
</svg>
